<svg width="24" height="17" viewBox="0 0 31 22" fill="none" xmlns="http://www.w3.org/2000/svg">
  <path d="M28.6783 0.845703H2.32167C1.03941 0.845703 0 1.88511 0 3.16737V18.8344C0 20.1166 1.03941 21.1561 2.32167 21.1561H28.6783C29.9605 21.1561 31 20.1167 31 18.8344V3.16737C31 1.88511 29.9606 0.845703 28.6783 0.845703Z" fill="#012169"/>
  <path d="M30.9678 2.78363C30.7849 1.68416 29.8298 0.845703 28.6783 0.845703H28.0743L18.1724 7.33312V0.845764H12.8276V7.33318L2.92575 0.845764H2.32167C1.17025 0.845764 0.215123 1.68416 0.0321504 2.78369L8.49527 8.32857H0V13.6734H8.49527L0.0321504 19.2182C0.215123 20.3176 1.17025 21.1561 2.32167 21.1561H2.92575L12.8276 14.6687V21.1561H18.1724V14.6687L28.0743 21.1561H28.6783C29.8298 21.1561 30.7849 20.3177 30.9678 19.2182L22.5047 13.6733H31V8.32845H22.5047L30.9678 2.78363Z" fill="#F5F5F5"/>
  <path d="M17.1035 0.845703H13.8965V9.3974H0V12.6043H13.8965V21.156H17.1035V12.6043H31V9.3974H17.1035V0.845703Z" fill="#C8102E"/>
  <path d="M1.50125 21.0069L12.7983 13.6738H10.8349L0.558594 20.3444C0.810045 20.6379 1.13318 20.8678 1.50125 21.0069Z" fill="#C8102E"/>
  <path d="M20.9727 13.6738H19.0093L29.9511 20.7763C30.2573 20.5752 30.5128 20.3036 30.695 19.9846L20.9727 13.6738Z" fill="#C8102E"/>
  <path d="M0.245117 2.13012L9.79518 8.32934H11.7586L0.936926 1.30469C0.646361 1.52096 0.408594 1.80371 0.245117 2.13012Z" fill="#C8102E"/>
  <path d="M20.1358 8.32868L30.4309 1.64582C30.1766 1.35332 29.8509 1.12469 29.4803 0.988281L18.1724 8.32868H20.1358Z" fill="#C8102E"/>
</svg>
