<svg width="61" height="67" viewBox="0 0 61 67" fill="none" xmlns="http://www.w3.org/2000/svg">
<path d="M3.69988 27.7534C3.35996 26.8969 3.08123 26.2289 2.81609 25.4032C2.27028 23.7 1.99495 21.9206 2.00028 20.1307C1.98846 17.5555 2.35444 14.9926 3.08633 12.5252C3.76644 10.2057 4.85132 8.02701 6.29008 6.09129C7.70661 4.21995 9.52615 2.69712 11.6116 1.63759C13.7446 0.544721 16.2294 0 19.0405 0C22.7797 0 25.8956 0.957549 28.3884 2.87264C30.9559 4.85746 33.1712 7.26627 34.9404 9.99685C36.8554 12.9208 38.4975 16.0174 39.8454 19.2468C41.179 22.4094 42.6808 25.4972 44.3443 28.4968C44.9611 29.5966 45.6339 30.6635 46.36 31.6932C46.36 31.6932 46.3838 31.7258 46.4229 31.7908C47.0297 32.697 52.103 40.0131 59 42.2845C57.4556 42.7785 55.8426 43.0196 54.2224 42.9988C50.4074 42.9988 47.2042 42.0412 44.6128 40.1261C41.9738 38.1592 39.6902 35.7493 37.862 33.0019C35.8869 30.0587 34.1755 26.9442 32.7479 23.6954C31.2499 20.3094 29.7022 17.2044 28.1045 14.3803C26.5069 11.5562 24.6906 9.18091 22.6556 7.2544C20.6161 5.34045 18.1369 4.38347 15.2181 4.38347C13.1276 4.38347 11.3107 4.84026 9.76748 5.75384C8.25984 6.62962 6.95725 7.82267 5.94847 9.2517C4.91984 10.723 4.1585 12.3667 3.69988 14.1062C3.20085 15.9332 2.94817 17.8196 2.94866 19.7145C2.94569 22.0786 3.36302 24.4242 4.18087 26.64C4.84029 28.4539 5.72672 30.1757 6.81866 31.7634L6.83396 31.7857C7.12969 32.2311 11.6812 38.9613 17.5959 41.8922C17.9629 42.1179 19.7254 42.8764 20.1379 42.9987C17.5001 42.9987 13.2282 42.9987 10.6371 42.9987C8.04597 42.9987 5.49555 42.973 2.86371 42.9987C3.17301 42.895 3.80295 42.6792 4.067 42.4866C5.48277 41.6626 6.30368 40.6606 6.73538 39.6088C7.07108 38.7576 7.19931 37.8377 7.1093 36.9263C7.1093 36.9057 7.1093 36.8852 7.1093 36.8629C7.1093 36.8407 7.10929 36.7807 7.0974 36.7396V36.7242V36.6694C7.06405 36.2995 6.99402 35.934 6.88835 35.5782" fill="white"/>
<path d="M57.3005 15.2464C57.6404 16.1027 57.919 16.7705 58.1841 17.596C58.7298 19.2988 59.0051 21.0778 58.9997 22.8672C59.0115 25.4419 58.6456 28.0042 57.9139 30.471C57.2347 32.7923 56.1501 34.9728 54.7109 36.9102C53.2947 38.7811 51.4756 40.3035 49.3907 41.3628C47.2582 42.4554 44.774 43 41.9635 43C38.2253 43 35.1101 42.0427 32.6179 40.128C30.0511 38.1437 27.8363 35.7355 26.0675 33.0055C24.1529 30.0823 22.5112 26.9864 21.1636 23.7578C19.8303 20.596 18.3289 17.5089 16.6658 14.51C16.045 13.4067 15.3678 12.3366 14.637 11.3041C14.637 11.3041 14.6132 11.2715 14.5741 11.2065C13.9675 10.3005 8.89536 2.98623 2 0.715387C3.54403 0.221505 5.15666 -0.0196087 6.77645 0.00124569C10.5906 0.00124569 13.793 0.958565 16.3837 2.8732C19.0221 4.83966 21.3052 7.24898 23.133 9.99571C25.1076 12.9382 26.8186 16.0519 28.2459 19.3C29.7423 22.6851 31.2897 25.7894 32.8881 28.6129C34.4865 31.4363 36.3023 33.811 38.3357 35.7371C40.3748 37.6506 42.8533 38.6073 45.7714 38.6073C47.8614 38.6073 49.6779 38.1506 51.2208 37.2373C52.7281 36.3617 54.0303 35.1689 55.0389 33.7402C56.0692 32.2674 56.8315 30.6217 57.2903 28.88C57.7892 27.0535 58.0419 25.1676 58.0414 23.2731C58.0464 20.9136 57.6326 18.5722 56.8196 16.3595C56.1604 14.546 55.2742 12.8247 54.1825 11.2373L54.174 11.2219C53.8783 10.7766 49.3279 4.04801 43.4146 1.11783C43.0477 0.892179 41.2785 0.126822 40.8661 0.00461753C43.5032 0.00461753 46.9106 0.00461753 49.5011 0.0045861C52.0916 0.00461753 55.5456 0.00461753 58.1362 0.00460812L57.8154 0.0765984H57.8052C57.4959 0.180256 57.2043 0.331 56.9403 0.523582C55.5249 1.34732 54.7041 2.34916 54.2725 3.40067C53.9369 4.25162 53.8087 5.1713 53.8987 6.08252C53.8987 6.10307 53.8987 6.12362 53.8987 6.14588C53.8987 6.16815 53.8987 6.22809 53.9106 6.26919C53.9106 6.26919 53.9106 6.27946 53.9106 6.2846C53.9106 6.28974 53.9106 6.32056 53.9106 6.3394C53.9439 6.70916 54.014 7.07461 54.1196 7.4303L57.3005 15.2464Z" fill="white"/>
<mask id="path-3-inside-1_7039_3004" fill="white">
<path d="M4.606 52.362H3.976C3.346 52.362 3.108 52.614 3.108 53.23V53.818L4.606 53.776V55.008L3.108 54.952V61H1.47V54.966L0.378 55.008V53.776L1.47 53.818V53.272C1.47 51.774 2.198 51.032 3.71 51.032H4.606V52.362ZM8.8748 61.21C6.7468 61.21 5.2908 59.628 5.2908 57.402C5.2908 55.148 6.7748 53.594 8.8888 53.594C10.9888 53.594 12.4728 55.134 12.4728 57.374C12.4728 59.6 10.9748 61.21 8.8748 61.21ZM8.8748 59.894C10.1208 59.894 10.8628 58.886 10.8628 57.374C10.8628 55.862 10.1208 54.91 8.8748 54.91C7.6428 54.91 6.8868 55.89 6.8868 57.402C6.8868 58.914 7.6428 59.894 8.8748 59.894ZM17.5233 53.58C17.6913 53.58 17.8453 53.594 18.0133 53.622V55.162C17.8453 55.134 17.7053 55.12 17.5793 55.12C16.4873 55.12 15.6753 55.834 15.6473 57.276V61H14.0093V53.776H15.5773L15.5633 55.05C15.9133 54.126 16.5573 53.58 17.5233 53.58ZM26.6487 53.608C28.3847 53.608 29.6867 55.008 29.6867 57.29C29.6867 59.572 28.4407 61.196 26.5507 61.196C25.6967 61.196 24.9827 60.846 24.5067 60.23V63.856H22.8687V53.776H24.3107L24.3387 54.812C24.8147 54.042 25.6127 53.608 26.6487 53.608ZM26.2707 59.768C27.3627 59.768 28.0767 58.788 28.0767 57.29C28.0767 55.806 27.3627 54.98 26.2707 54.98C25.1927 54.98 24.4227 55.834 24.4227 57.332C24.4227 58.83 25.1927 59.768 26.2707 59.768ZM34.4002 61.21C32.2722 61.21 30.8162 59.628 30.8162 57.402C30.8162 55.148 32.3002 53.594 34.4142 53.594C36.5142 53.594 37.9982 55.134 37.9982 57.374C37.9982 59.6 36.5002 61.21 34.4002 61.21ZM34.4002 59.894C35.6462 59.894 36.3882 58.886 36.3882 57.374C36.3882 55.862 35.6462 54.91 34.4002 54.91C33.1682 54.91 32.4122 55.89 32.4122 57.402C32.4122 58.914 33.1682 59.894 34.4002 59.894ZM43.0487 53.58C43.2167 53.58 43.3707 53.594 43.5387 53.622V55.162C43.3707 55.134 43.2307 55.12 43.1047 55.12C42.0127 55.12 41.2007 55.834 41.1727 57.276V61H39.5347V53.776H41.1027L41.0887 55.05C41.4387 54.126 42.0827 53.58 43.0487 53.58ZM48.7098 55.008L47.2258 54.952V58.97C47.2258 59.488 47.4078 59.67 47.9118 59.67H48.7098V61H47.4078C46.1198 61 45.5878 60.468 45.5878 59.18V54.966L44.5518 55.008V53.776L45.5878 53.818V51.55H47.2258V53.818L48.7098 53.776V55.008ZM56.2507 61H54.5987C54.5287 60.72 54.4727 60.44 54.4167 60.16C53.9267 60.79 53.0867 61.196 52.0507 61.196C50.5527 61.196 49.5867 60.37 49.5867 59.04C49.5867 57.878 50.3147 57.094 51.9107 56.828L54.1647 56.45C54.2347 56.436 54.3047 56.422 54.3607 56.394V55.778C54.3607 55.134 53.8847 54.826 52.9327 54.826C52.0227 54.826 51.5747 55.12 51.4767 55.932H49.9367C50.0767 54.336 51.0707 53.594 52.9747 53.594C54.9207 53.594 55.9567 54.406 55.9567 56.086V59.334C55.9567 59.922 56.0267 60.342 56.2507 61ZM52.4567 59.964C53.4927 59.964 54.3607 59.278 54.3607 58.298V57.542L52.3587 57.892C51.5607 58.032 51.1967 58.41 51.1967 58.956C51.1967 59.586 51.6727 59.964 52.4567 59.964ZM59.534 61H57.896V51.032H59.534V61Z"/>
</mask>
<path d="M4.606 52.362V54.362C5.71057 54.362 6.606 53.4666 6.606 52.362H4.606ZM3.108 53.818H1.108C1.108 54.3582 1.32648 54.8753 1.71375 55.2519C2.10101 55.6284 2.62411 55.8324 3.16405 55.8172L3.108 53.818ZM4.606 53.776H6.606C6.606 53.2358 6.38752 52.7187 6.00026 52.3421C5.61299 51.9655 5.08989 51.7616 4.54995 51.7768L4.606 53.776ZM4.606 55.008L4.53129 57.0066C5.0743 57.0269 5.6022 56.8254 5.99355 56.4484C6.3849 56.0714 6.606 55.5514 6.606 55.008H4.606ZM3.108 54.952L3.18271 52.9534C2.6397 52.9331 2.1118 53.1346 1.72045 53.5116C1.32911 53.8886 1.108 54.4086 1.108 54.952H3.108ZM3.108 61V63C4.21257 63 5.108 62.1046 5.108 61H3.108ZM1.47 61H-0.53C-0.53 62.1046 0.365431 63 1.47 63L1.47 61ZM1.47 54.966H3.47C3.47 54.4222 3.24859 53.9019 2.85677 53.5249C2.46495 53.1478 1.9365 52.9466 1.39313 52.9675L1.47 54.966ZM0.378 55.008H-1.622C-1.622 55.5518 -1.40059 56.0721 -1.00877 56.4491C-0.616951 56.8262 -0.0884992 57.0274 0.454866 57.0065L0.378 55.008ZM0.378 53.776L0.454867 51.7775C-0.0884986 51.7566 -0.61695 51.9578 -1.00877 52.3349C-1.40059 52.7119 -1.622 53.2322 -1.622 53.776H0.378ZM1.47 53.818L1.39313 55.8165C1.9365 55.8374 2.46495 55.6362 2.85677 55.2591C3.24859 54.8821 3.47 54.3618 3.47 53.818H1.47ZM4.606 51.032H6.606C6.606 49.9274 5.71057 49.032 4.606 49.032V51.032ZM4.606 50.362H3.976V54.362H4.606V50.362ZM3.976 50.362C3.46565 50.362 2.58211 50.4514 1.88267 51.1597C1.18853 51.8626 1.108 52.7395 1.108 53.23H5.108C5.108 53.1045 5.14647 53.5474 4.72883 53.9703C4.30589 54.3986 3.85635 54.362 3.976 54.362V50.362ZM1.108 53.23V53.818H5.108V53.23H1.108ZM3.16405 55.8172L4.66205 55.7752L4.54995 51.7768L3.05195 51.8188L3.16405 55.8172ZM2.606 53.776V55.008H6.606V53.776H2.606ZM4.68071 53.0094L3.18271 52.9534L3.03329 56.9506L4.53129 57.0066L4.68071 53.0094ZM1.108 54.952V61H5.108V54.952H1.108ZM3.108 59H1.47V63H3.108V59ZM3.47 61V54.966H-0.53V61H3.47ZM1.39313 52.9675L0.301134 53.0095L0.454866 57.0065L1.54687 56.9645L1.39313 52.9675ZM2.378 55.008V53.776H-1.622V55.008H2.378ZM0.301133 55.7745L1.39313 55.8165L1.54687 51.8195L0.454867 51.7775L0.301133 55.7745ZM3.47 53.818V53.272H-0.53V53.818H3.47ZM3.47 53.272C3.47 53.0529 3.4974 52.945 3.50783 52.9131C3.51491 52.8916 3.5019 52.9395 3.44054 53.0011C3.37897 53.063 3.33039 53.0767 3.35059 53.07C3.38126 53.0599 3.48904 53.032 3.71 53.032V49.032C2.65523 49.032 1.48938 49.2913 0.605463 50.1794C-0.276712 51.0657 -0.53 52.229 -0.53 53.272H3.47ZM3.71 53.032H4.606V49.032H3.71V53.032ZM2.606 51.032V52.362H6.606V51.032H2.606ZM8.8748 59.21C8.33008 59.21 7.97456 59.0196 7.74565 58.7748C7.50645 58.519 7.2908 58.0767 7.2908 57.402H3.2908C3.2908 58.9533 3.80315 60.415 4.82395 61.5067C5.85503 62.6094 7.29152 63.21 8.8748 63.21V59.21ZM7.2908 57.402C7.2908 56.7187 7.50976 56.2806 7.74865 56.0286C7.98041 55.784 8.34215 55.594 8.8888 55.594V51.594C7.32145 51.594 5.88418 52.181 4.84544 53.2769C3.81383 54.3654 3.2908 55.8313 3.2908 57.402H7.2908ZM8.8888 55.594C9.43059 55.594 9.79029 55.7822 10.0202 56.0235C10.2562 56.2713 10.4728 56.7014 10.4728 57.374H14.4728C14.4728 55.8066 13.9474 54.3467 12.9164 53.2645C11.8793 52.1758 10.447 51.594 8.8888 51.594V55.594ZM10.4728 57.374C10.4728 58.6226 9.74717 59.21 8.8748 59.21V63.21C12.2024 63.21 14.4728 60.5774 14.4728 57.374H10.4728ZM8.8748 61.894C10.0973 61.894 11.186 61.3706 11.9178 60.425C12.6058 59.5358 12.8628 58.4311 12.8628 57.374H8.8628C8.8628 57.8289 8.74877 57.9842 8.75431 57.977C8.76226 57.9668 8.79186 57.9358 8.84185 57.9116C8.89108 57.8879 8.91181 57.894 8.8748 57.894V61.894ZM12.8628 57.374C12.8628 56.3165 12.6053 55.211 11.8984 54.3264C11.1482 53.3877 10.0569 52.91 8.8748 52.91V56.91C8.92856 56.91 8.91851 56.9193 8.87358 56.8986C8.82601 56.8766 8.79035 56.8445 8.77368 56.8236C8.74926 56.793 8.8628 56.9195 8.8628 57.374H12.8628ZM8.8748 52.91C7.67423 52.91 6.58851 53.414 5.84968 54.3489C5.15147 55.2323 4.8868 56.3364 4.8868 57.402H8.8868C8.8868 56.9556 9.00013 56.8137 8.98791 56.8291C8.97757 56.8422 8.94719 56.8722 8.89976 56.8946C8.85355 56.9165 8.83614 56.91 8.8748 56.91V52.91ZM4.8868 57.402C4.8868 58.4676 5.15147 59.5717 5.84968 60.4551C6.58851 61.39 7.67423 61.894 8.8748 61.894V57.894C8.83614 57.894 8.85355 57.8875 8.89976 57.9094C8.94719 57.9318 8.97757 57.9618 8.98791 57.9749C9.00013 57.9903 8.8868 57.8484 8.8868 57.402H4.8868ZM18.0133 53.622H20.0133C20.0133 52.6443 19.3065 51.8099 18.3421 51.6492L18.0133 53.622ZM18.0133 55.162L17.6845 57.1348C18.2644 57.2314 18.8575 57.068 19.306 56.688C19.7546 56.308 20.0133 55.7499 20.0133 55.162H18.0133ZM15.6473 57.276L13.6477 57.2372C13.6474 57.2501 13.6473 57.2631 13.6473 57.276L15.6473 57.276ZM15.6473 61V63C16.7519 63 17.6473 62.1046 17.6473 61H15.6473ZM14.0093 61H12.0093C12.0093 62.1046 12.9047 63 14.0093 63V61ZM14.0093 53.776V51.776C12.9047 51.776 12.0093 52.6714 12.0093 53.776H14.0093ZM15.5773 53.776L17.5772 53.798C17.583 53.2638 17.3749 52.7494 16.9993 52.3696C16.6236 51.9897 16.1115 51.776 15.5773 51.776V53.776ZM15.5633 55.05L13.5634 55.028C13.5528 55.9978 14.2394 56.8354 15.1924 57.0153C16.1454 57.1952 17.0901 56.6654 17.4336 55.7585L15.5633 55.05ZM17.5233 55.58C17.5703 55.58 17.6139 55.583 17.6845 55.5948L18.3421 51.6492C18.0767 51.605 17.8123 51.58 17.5233 51.58V55.58ZM16.0133 53.622V55.162H20.0133V53.622H16.0133ZM18.3421 53.1892C18.1076 53.1501 17.8513 53.12 17.5793 53.12V57.12C17.5593 57.12 17.583 57.1179 17.6845 57.1348L18.3421 53.1892ZM17.5793 53.12C16.587 53.12 15.5528 53.455 14.7687 54.2751C13.9944 55.085 13.6687 56.1527 13.6477 57.2372L17.6469 57.3148C17.6504 57.1367 17.677 57.042 17.6891 57.0084C17.6999 56.9786 17.6974 57.0001 17.6599 57.0394C17.6215 57.0795 17.5773 57.1058 17.5454 57.1182C17.5175 57.129 17.5236 57.12 17.5793 57.12V53.12ZM13.6473 57.276V61H17.6473V57.276H13.6473ZM15.6473 59H14.0093V63H15.6473V59ZM16.0093 61V53.776H12.0093V61H16.0093ZM14.0093 55.776H15.5773V51.776H14.0093V55.776ZM13.5774 53.754L13.5634 55.028L17.5632 55.072L17.5772 53.798L13.5774 53.754ZM17.4336 55.7585C17.5135 55.5477 17.5731 55.5217 17.5366 55.5499C17.5185 55.564 17.4958 55.5757 17.4776 55.5816C17.4611 55.587 17.4718 55.58 17.5233 55.58V51.58C16.6398 51.58 15.7962 51.8387 15.088 52.3871C14.4005 52.9193 13.9631 53.6283 13.693 54.3415L17.4336 55.7585ZM24.5067 60.23L26.0892 59.0071C25.5661 58.3301 24.6703 58.0608 23.8606 58.3372C23.0509 58.6136 22.5067 59.3744 22.5067 60.23H24.5067ZM24.5067 63.856V65.856C25.6112 65.856 26.5067 64.9606 26.5067 63.856H24.5067ZM22.8687 63.856H20.8687C20.8687 64.9606 21.7641 65.856 22.8687 65.856V63.856ZM22.8687 53.776V51.776C21.7641 51.776 20.8687 52.6714 20.8687 53.776H22.8687ZM24.3107 53.776L26.3099 53.722C26.2807 52.6388 25.3942 51.776 24.3107 51.776V53.776ZM24.3387 54.812L22.3394 54.866C22.3633 55.7497 22.9645 56.5129 23.8181 56.7431C24.6716 56.9732 25.575 56.6156 26.0399 55.8636L24.3387 54.812ZM26.6487 55.608C26.9443 55.608 27.1435 55.7114 27.2978 55.8921C27.47 56.0938 27.6867 56.5219 27.6867 57.29H31.6867C31.6867 55.7761 31.2523 54.3632 30.3395 53.2944C29.4088 52.2046 28.089 51.608 26.6487 51.608V55.608ZM27.6867 57.29C27.6867 58.0841 27.4692 58.5925 27.2599 58.8566C27.0801 59.0836 26.8667 59.196 26.5507 59.196V63.196C28.1247 63.196 29.4793 62.4964 30.395 61.3409C31.2812 60.2225 31.6867 58.7779 31.6867 57.29H27.6867ZM26.5507 59.196C26.2823 59.196 26.1663 59.1069 26.0892 59.0071L22.9241 61.4529C23.799 62.5851 25.1111 63.196 26.5507 63.196V59.196ZM22.5067 60.23V63.856H26.5067V60.23H22.5067ZM24.5067 61.856H22.8687V65.856H24.5067V61.856ZM24.8687 63.856V53.776H20.8687V63.856H24.8687ZM22.8687 55.776H24.3107V51.776H22.8687V55.776ZM22.3114 53.83L22.3394 54.866L26.3379 54.758L26.3099 53.722L22.3114 53.83ZM26.0399 55.8636C26.1145 55.743 26.2324 55.608 26.6487 55.608V51.608C24.9929 51.608 23.5149 52.341 22.6375 53.7604L26.0399 55.8636ZM26.2707 61.768C27.4891 61.768 28.528 61.1901 29.1995 60.2686C29.8316 59.4012 30.0767 58.3305 30.0767 57.29H26.0767C26.0767 57.5082 26.0504 57.6679 26.021 57.7741C25.9913 57.8807 25.963 57.9182 25.9668 57.9129C25.9734 57.9039 26.0103 57.8592 26.0869 57.8191C26.166 57.7777 26.2367 57.768 26.2707 57.768V61.768ZM30.0767 57.29C30.0767 56.2531 29.8292 55.1807 29.1422 54.3257C28.4134 53.4188 27.366 52.98 26.2707 52.98V56.98C26.2891 56.98 26.251 56.9827 26.1832 56.9517C26.1122 56.9193 26.0566 56.8717 26.0242 56.8313C25.9953 56.7954 26.008 56.7947 26.029 56.8664C26.0506 56.9399 26.0767 57.0761 26.0767 57.29H30.0767ZM26.2707 52.98C25.1607 52.98 24.1187 53.4409 23.3933 54.3292C22.6987 55.1799 22.4227 56.258 22.4227 57.332H26.4227C26.4227 56.908 26.5317 56.8101 26.4915 56.8593C26.4697 56.886 26.427 56.9242 26.3665 56.9522C26.3075 56.9795 26.2686 56.98 26.2707 56.98V52.98ZM22.4227 57.332C22.4227 58.4051 22.6976 59.4811 23.3623 60.3378C24.057 61.2331 25.0953 61.768 26.2707 61.768V57.768C26.2972 57.768 26.3535 57.7753 26.4181 57.8074C26.4814 57.839 26.5144 57.8753 26.5225 57.8857C26.5328 57.8989 26.4227 57.7569 26.4227 57.332H22.4227ZM34.4002 59.21C33.8555 59.21 33.5 59.0196 33.271 58.7748C33.0318 58.519 32.8162 58.0767 32.8162 57.402H28.8162C28.8162 58.9533 29.3285 60.415 30.3493 61.5067C31.3804 62.6094 32.8169 63.21 34.4002 63.21V59.21ZM32.8162 57.402C32.8162 56.7187 33.0352 56.2806 33.274 56.0286C33.5058 55.784 33.8675 55.594 34.4142 55.594V51.594C32.8468 51.594 31.4096 52.181 30.3708 53.2769C29.3392 54.3654 28.8162 55.8313 28.8162 57.402H32.8162ZM34.4142 55.594C34.956 55.594 35.3157 55.7822 35.5456 56.0235C35.7816 56.2713 35.9982 56.7014 35.9982 57.374H39.9982C39.9982 55.8066 39.4728 54.3467 38.4418 53.2645C37.4047 52.1758 35.9724 51.594 34.4142 51.594V55.594ZM35.9982 57.374C35.9982 58.6226 35.2726 59.21 34.4002 59.21V63.21C37.7278 63.21 39.9982 60.5774 39.9982 57.374H35.9982ZM34.4002 61.894C35.6227 61.894 36.7114 61.3706 37.4432 60.425C38.1312 59.5358 38.3882 58.4311 38.3882 57.374H34.3882C34.3882 57.8289 34.2742 57.9842 34.2797 57.977C34.2877 57.9668 34.3173 57.9358 34.3672 57.9116C34.4165 57.8879 34.4372 57.894 34.4002 57.894V61.894ZM38.3882 57.374C38.3882 56.3165 38.1307 55.211 37.4238 54.3264C36.6736 53.3877 35.5823 52.91 34.4002 52.91V56.91C34.4539 56.91 34.4439 56.9193 34.399 56.8986C34.3514 56.8766 34.3157 56.8445 34.2991 56.8236C34.2746 56.793 34.3882 56.9195 34.3882 57.374H38.3882ZM34.4002 52.91C33.1996 52.91 32.1139 53.414 31.3751 54.3489C30.6769 55.2323 30.4122 56.3364 30.4122 57.402H34.4122C34.4122 56.9556 34.5255 56.8137 34.5133 56.8291C34.503 56.8422 34.4726 56.8722 34.4251 56.8946C34.3789 56.9165 34.3615 56.91 34.4002 56.91V52.91ZM30.4122 57.402C30.4122 58.4676 30.6769 59.5717 31.3751 60.4551C32.1139 61.39 33.1996 61.894 34.4002 61.894V57.894C34.3615 57.894 34.3789 57.8875 34.4251 57.9094C34.4726 57.9318 34.503 57.9618 34.5133 57.9749C34.5255 57.9903 34.4122 57.8484 34.4122 57.402H30.4122ZM43.5387 53.622H45.5387C45.5387 52.6443 44.8319 51.8099 43.8675 51.6492L43.5387 53.622ZM43.5387 55.162L43.2099 57.1348C43.7898 57.2314 44.3829 57.068 44.8314 56.688C45.28 56.308 45.5387 55.7499 45.5387 55.162H43.5387ZM41.1727 57.276L39.1731 57.2372C39.1728 57.2501 39.1727 57.2631 39.1727 57.276L41.1727 57.276ZM41.1727 61V63C42.2773 63 43.1727 62.1046 43.1727 61H41.1727ZM39.5347 61H37.5347C37.5347 62.1046 38.4301 63 39.5347 63V61ZM39.5347 53.776V51.776C38.4301 51.776 37.5347 52.6714 37.5347 53.776H39.5347ZM41.1027 53.776L43.1026 53.798C43.1084 53.2638 42.9003 52.7494 42.5246 52.3696C42.149 51.9897 41.6369 51.776 41.1027 51.776V53.776ZM41.0887 55.05L39.0888 55.028C39.0782 55.9978 39.7648 56.8354 40.7178 57.0153C41.6708 57.1952 42.6155 56.6654 42.959 55.7585L41.0887 55.05ZM43.0487 55.58C43.0957 55.58 43.1393 55.583 43.2099 55.5948L43.8675 51.6492C43.6021 51.605 43.3377 51.58 43.0487 51.58V55.58ZM41.5387 53.622V55.162H45.5387V53.622H41.5387ZM43.8675 53.1892C43.633 53.1501 43.3766 53.12 43.1047 53.12V57.12C43.0847 57.12 43.1084 57.1179 43.2099 57.1348L43.8675 53.1892ZM43.1047 53.12C42.1124 53.12 41.0782 53.455 40.2941 54.2751C39.5197 55.085 39.1941 56.1527 39.1731 57.2372L43.1723 57.3148C43.1758 57.1367 43.2024 57.042 43.2145 57.0084C43.2253 56.9786 43.2228 57.0001 43.1853 57.0394C43.1469 57.0795 43.1027 57.1058 43.0708 57.1182C43.0429 57.129 43.049 57.12 43.1047 57.12V53.12ZM39.1727 57.276V61H43.1727V57.276H39.1727ZM41.1727 59H39.5347V63H41.1727V59ZM41.5347 61V53.776H37.5347V61H41.5347ZM39.5347 55.776H41.1027V51.776H39.5347V55.776ZM39.1028 53.754L39.0888 55.028L43.0886 55.072L43.1026 53.798L39.1028 53.754ZM42.959 55.7585C43.0388 55.5477 43.0985 55.5217 43.062 55.5499C43.0439 55.564 43.0212 55.5757 43.003 55.5816C42.9865 55.587 42.9971 55.58 43.0487 55.58V51.58C42.1652 51.58 41.3216 51.8387 40.6133 52.3871C39.9259 52.9193 39.4885 53.6283 39.2184 54.3415L42.959 55.7585ZM48.7098 55.008L48.6344 57.0066C49.1775 57.0271 49.7056 56.8256 50.0971 56.4486C50.4886 56.0716 50.7098 55.5515 50.7098 55.008H48.7098ZM47.2258 54.952L47.3012 52.9534C46.7581 52.9329 46.23 53.1344 45.8385 53.5114C45.447 53.8884 45.2258 54.4085 45.2258 54.952H47.2258ZM48.7098 59.67H50.7098C50.7098 58.5654 49.8144 57.67 48.7098 57.67V59.67ZM48.7098 61V63C49.8144 63 50.7098 62.1046 50.7098 61H48.7098ZM45.5878 54.966H47.5878C47.5878 54.4215 47.3658 53.9006 46.9731 53.5234C46.5804 53.1463 46.0509 52.9456 45.5068 52.9676L45.5878 54.966ZM44.5518 55.008H42.5518C42.5518 55.5525 42.7738 56.0734 43.1666 56.4506C43.5593 56.8277 44.0888 57.0284 44.6328 57.0064L44.5518 55.008ZM44.5518 53.776L44.6328 51.7776C44.0888 51.7556 43.5593 51.9563 43.1666 52.3334C42.7738 52.7106 42.5518 53.2315 42.5518 53.776H44.5518ZM45.5878 53.818L45.5068 55.8164C46.0509 55.8384 46.5804 55.6377 46.9731 55.2606C47.3658 54.8834 47.5878 54.3625 47.5878 53.818H45.5878ZM45.5878 51.55V49.55C44.4833 49.55 43.5878 50.4454 43.5878 51.55H45.5878ZM47.2258 51.55H49.2258C49.2258 50.4454 48.3304 49.55 47.2258 49.55V51.55ZM47.2258 53.818H45.2258C45.2258 54.3582 45.4444 54.8755 45.8318 55.2521C46.2191 55.6286 46.7424 55.8325 47.2824 55.8172L47.2258 53.818ZM48.7098 53.776H50.7098C50.7098 53.2358 50.4913 52.7185 50.1039 52.3419C49.7165 51.9654 49.1933 51.7615 48.6532 51.7768L48.7098 53.776ZM48.7852 53.0094L47.3012 52.9534L47.1504 56.9506L48.6344 57.0066L48.7852 53.0094ZM45.2258 54.952V58.97H49.2258V54.952H45.2258ZM45.2258 58.97C45.2258 59.3652 45.2739 60.2256 45.9543 60.9171C46.644 61.6179 47.5125 61.67 47.9118 61.67V57.67C47.8072 57.67 48.3327 57.6311 48.8053 58.1114C49.2688 58.5824 49.2258 59.0928 49.2258 58.97H45.2258ZM47.9118 61.67H48.7098V57.67H47.9118V61.67ZM46.7098 59.67V61H50.7098V59.67H46.7098ZM48.7098 59H47.4078V63H48.7098V59ZM47.4078 59C47.2126 59 47.1463 58.9785 47.1601 58.9827C47.1711 58.986 47.2077 58.9983 47.2591 59.0278C47.312 59.058 47.3715 59.1012 47.429 59.1588C47.4866 59.2164 47.5298 59.2758 47.5601 59.3287C47.5895 59.3802 47.6018 59.4167 47.6051 59.4277C47.6093 59.4416 47.5878 59.3752 47.5878 59.18H43.5878C43.5878 60.0369 43.7548 61.1414 44.6006 61.9872C45.4465 62.8331 46.5509 63 47.4078 63V59ZM47.5878 59.18V54.966H43.5878V59.18H47.5878ZM45.5068 52.9676L44.4708 53.0096L44.6328 57.0064L45.6688 56.9644L45.5068 52.9676ZM46.5518 55.008V53.776H42.5518V55.008H46.5518ZM44.4708 55.7744L45.5068 55.8164L45.6688 51.8196L44.6328 51.7776L44.4708 55.7744ZM47.5878 53.818V51.55H43.5878V53.818H47.5878ZM45.5878 53.55H47.2258V49.55H45.5878V53.55ZM45.2258 51.55V53.818H49.2258V51.55H45.2258ZM47.2824 55.8172L48.7664 55.7752L48.6532 51.7768L47.1692 51.8188L47.2824 55.8172ZM46.7098 53.776V55.008H50.7098V53.776H46.7098ZM56.2507 61V63C56.8958 63 57.5013 62.6888 57.8769 62.1642C58.2524 61.6397 58.3519 60.9662 58.144 60.3555L56.2507 61ZM54.5987 61L52.6584 61.4851C52.881 62.3754 53.681 63 54.5987 63V61ZM54.4167 60.16L56.3778 59.7678C56.2244 59.0006 55.6377 58.3933 54.8762 58.2135C54.1147 58.0337 53.3183 58.3145 52.838 58.9321L54.4167 60.16ZM51.9107 56.828L52.2395 58.8008L52.2415 58.8005L51.9107 56.828ZM54.1647 56.45L54.4955 58.4225C54.516 58.419 54.5365 58.4152 54.5569 58.4112L54.1647 56.45ZM54.3607 56.394L55.2551 58.1829C55.9327 57.8441 56.3607 57.1515 56.3607 56.394H54.3607ZM51.4767 55.932V57.932C52.4886 57.932 53.341 57.1762 53.4623 56.1716L51.4767 55.932ZM49.9367 55.932L47.9443 55.7572C47.8953 56.3159 48.0831 56.8695 48.462 57.283C48.8408 57.6965 49.3759 57.932 49.9367 57.932V55.932ZM54.3607 57.542H56.3607C56.3607 56.9513 56.0996 56.3909 55.6474 56.0108C55.1952 55.6308 54.5981 55.4702 54.0163 55.5719L54.3607 57.542ZM52.3587 57.892L52.0143 55.9219L52.0131 55.9221L52.3587 57.892ZM56.2507 59H54.5987V63H56.2507V59ZM56.539 60.5149C56.4824 60.2887 56.4353 60.0552 56.3778 59.7678L52.4555 60.5522C52.51 60.8248 52.575 61.1513 52.6584 61.4851L56.539 60.5149ZM52.838 58.9321C52.7836 59.002 52.5682 59.196 52.0507 59.196V63.196C53.6051 63.196 55.0697 62.578 55.9954 61.3879L52.838 58.9321ZM52.0507 59.196C51.6557 59.196 51.5476 59.0887 51.5691 59.1074C51.5798 59.1167 51.5922 59.1336 51.5977 59.1465C51.6021 59.1567 51.5867 59.1285 51.5867 59.04H47.5867C47.5867 60.2219 48.0343 61.3346 48.9447 62.1261C49.8238 62.8903 50.9477 63.196 52.0507 63.196V59.196ZM51.5867 59.04C51.5867 58.9589 51.5991 58.9414 51.5908 58.9627C51.5806 58.9892 51.5625 59.0142 51.5512 59.0252C51.5391 59.0372 51.6805 58.894 52.2395 58.8008L51.5819 54.8552C50.5449 55.028 49.5243 55.4098 48.7491 56.1708C47.9278 56.977 47.5867 58.0072 47.5867 59.04H51.5867ZM52.2415 58.8005L54.4955 58.4225L53.8339 54.4775L51.5799 54.8555L52.2415 58.8005ZM54.5569 58.4112C54.5805 58.4065 54.6755 58.3881 54.7769 58.3614C54.8804 58.3342 55.057 58.2819 55.2551 58.1829L53.4663 54.6051C53.6084 54.5341 53.7219 54.5028 53.7589 54.4931C53.7939 54.4839 53.8189 54.4795 53.7725 54.4888L54.5569 58.4112ZM56.3607 56.394V55.778H52.3607V56.394H56.3607ZM56.3607 55.778C56.3607 54.8812 55.9809 53.9707 55.1074 53.3926C54.3854 52.9148 53.5577 52.826 52.9327 52.826V56.826C52.9985 56.826 53.0477 56.8287 53.0822 56.8319C53.1171 56.8351 53.1322 56.8385 53.1312 56.8382C53.1303 56.838 53.1073 56.833 53.0684 56.8177C53.029 56.8021 52.9698 56.7746 52.9 56.7284C52.7483 56.628 52.59 56.4676 52.4813 56.2494C52.3773 56.0407 52.3607 55.8638 52.3607 55.778H56.3607ZM52.9327 52.826C52.3258 52.826 51.4664 52.911 50.7154 53.4632C49.8826 54.0756 49.58 54.9554 49.4911 55.6924L53.4623 56.1716C53.4676 56.1275 53.4666 56.1892 53.4108 56.3022C53.3474 56.4306 53.2388 56.5727 53.085 56.6858C52.941 56.7917 52.8221 56.8247 52.792 56.8317C52.7685 56.8372 52.8043 56.826 52.9327 56.826V52.826ZM51.4767 53.932H49.9367V57.932H51.4767V53.932ZM51.929 56.1068C51.9475 55.8964 51.987 55.7974 52.0021 55.7663C52.0093 55.7514 52.0127 55.7483 52.0102 55.7513C52.0077 55.7545 52.0057 55.7558 52.0083 55.7538C52.0205 55.7445 52.2389 55.594 52.9747 55.594V51.594C51.8065 51.594 50.5758 51.8145 49.5801 52.5752C48.5176 53.3868 48.0496 54.5569 47.9443 55.7572L51.929 56.1068ZM52.9747 55.594C53.3284 55.594 53.572 55.6316 53.7293 55.675C53.8058 55.6961 53.8559 55.717 53.8859 55.7318C53.9008 55.7392 53.9108 55.7451 53.9168 55.7489C53.9198 55.7509 53.9219 55.7524 53.9232 55.7533C53.9245 55.7543 53.9251 55.7548 53.9252 55.7548C53.9252 55.7548 53.9247 55.7544 53.9239 55.7536C53.923 55.7528 53.9219 55.7518 53.9206 55.7504C53.9178 55.7475 53.9151 55.7442 53.9126 55.7409C53.9071 55.7332 53.908 55.7322 53.9128 55.7438C53.9228 55.7685 53.9567 55.8681 53.9567 56.086H57.9567C57.9567 54.8151 57.5453 53.5529 56.4657 52.6652C55.4593 51.8376 54.1776 51.594 52.9747 51.594V55.594ZM53.9567 56.086V59.334H57.9567V56.086H53.9567ZM53.9567 59.334C53.9567 60.1641 54.0705 60.8018 54.3574 61.6445L58.144 60.3555C57.9829 59.8822 57.9567 59.6799 57.9567 59.334H53.9567ZM52.4567 61.964C54.2766 61.964 56.3607 60.678 56.3607 58.298H52.3607C52.3607 58.2416 52.3746 58.171 52.4077 58.1024C52.4395 58.0366 52.4778 57.9951 52.5032 57.9735C52.549 57.9347 52.5428 57.964 52.4567 57.964V61.964ZM56.3607 58.298V57.542H52.3607V58.298H56.3607ZM54.0163 55.5719L52.0143 55.9219L52.7031 59.8621L54.7051 59.5121L54.0163 55.5719ZM52.0131 55.9221C51.3931 56.0309 50.6815 56.2731 50.1048 56.8181C49.4728 57.4153 49.1967 58.1926 49.1967 58.956H53.1967C53.1967 59.0438 53.1814 59.1784 53.1183 59.3335C53.0536 59.4924 52.9574 59.6259 52.8521 59.7254C52.6569 59.9099 52.5263 59.8931 52.7043 59.8619L52.0131 55.9221ZM49.1967 58.956C49.1967 59.8232 49.5504 60.6728 50.2848 61.2592C50.9633 61.8009 51.7704 61.964 52.4567 61.964V57.964C52.359 57.964 52.5361 57.9381 52.7805 58.1333C52.9086 58.2356 53.0236 58.3763 53.1013 58.5456C53.1775 58.7118 53.1967 58.859 53.1967 58.956H49.1967ZM59.534 61V63C60.6386 63 61.534 62.1046 61.534 61H59.534ZM57.896 61H55.896C55.896 62.1046 56.7914 63 57.896 63V61ZM57.896 51.032V49.032C56.7914 49.032 55.896 49.9274 55.896 51.032H57.896ZM59.534 51.032H61.534C61.534 49.9274 60.6386 49.032 59.534 49.032V51.032ZM59.534 59H57.896V63H59.534V59ZM59.896 61V51.032H55.896V61H59.896ZM57.896 53.032H59.534V49.032H57.896V53.032ZM57.534 51.032V61H61.534V51.032H57.534Z" fill="white" mask="url(#path-3-inside-1_7039_3004)"/>
</svg>
